<svg xmlns="http://www.w3.org/2000/svg" xmlns:xlink="http://www.w3.org/1999/xlink" width="1752.104" height="1552.308" viewBox="0 0 1752.104 1552.308"><defs><linearGradient id="a" x1="0.5" y1="1" x2="0.5" gradientUnits="objectBoundingBox"><stop offset="0" stop-color="gray" stop-opacity="0.251"/><stop offset="0.54" stop-color="gray" stop-opacity="0.122"/><stop offset="1" stop-color="gray" stop-opacity="0.102"/></linearGradient></defs><g transform="translate(-11097.658 -5143.417)"><g transform="translate(10662.999 4785.995)"><path d="M921.71,874.75l-452.53-5.8,1.323-11.6L492.387,665.89H889.8l29.24,191.455,2.228,14.5Z" transform="translate(619.629 879.412)" fill="#f9fafb"/><path d="M921.269,762.894H695.445l-226.265-2.9,1.323-11.6H919.041Z" transform="translate(619.629 988.367)" opacity="0.1"/><rect width="600.472" height="14.504" transform="translate(1013.388 1739.658)" fill="#f9fafb"/><path d="M1974.4,226.183a37.757,37.757,0,0,0-37.572-37.943H259.9A37.757,37.757,0,0,0,222.3,226.183V1242.635H1974.4Z" transform="translate(212.359 169.182)" fill="#34353d"/><path d="M222.3,638.24V757.29a37.6,37.6,0,0,0,37.595,37.595H1936.831A37.6,37.6,0,0,0,1974.4,757.29V638.24Z" transform="translate(212.36 763.482)" fill="#f9fafb"/><rect width="1615.764" height="913.762" transform="translate(507.181 421.241)" fill="#0a4de5"/><path d="M625.783,730.729A39.2,39.2,0,0,0,656.6,715.784h0a39.943,39.943,0,0,0,3.04-4.479l-21.489-3.527,23.207.186a39.1,39.1,0,0,0,.743-31.051l-31.167,16.245,28.753-21.118a39.15,39.15,0,1,0-64.677,43.814h0A39.151,39.151,0,0,0,625.783,730.729Z" transform="translate(693.631 782.455)" fill="#0a4de5"/><path d="M585.43,671.52,765.955,852.81,738.269,671.52Z" transform="translate(773.157 886.847)" opacity="0.1"/><rect width="1060.544" height="635.863" rx="2.6" transform="translate(554.638 586.101)" fill="#fff"/><rect width="1615.184" height="53.375" transform="translate(508.225 421.334)" fill="#fff"/><rect width="46.413" height="32.489" rx="0.78" transform="translate(515.187 430.616)" fill="#164de5"/><rect width="487.34" height="32.489" rx="0.58" transform="translate(1067.505 430.616)" fill="#164de5" opacity="0.3"/><path d="M709.309,237.452h-1.184l-.441-.371a9.862,9.862,0,0,0,2.321-6.312,9.607,9.607,0,1,0-9.584,9.677,9.91,9.91,0,0,0,6.312-2.321l.441.371V239.7l7.426,7.426,2.321-2.321Zm-8.911,0a6.707,6.707,0,1,1,6.683-6.684,6.637,6.637,0,0,1-6.683,6.683Z" transform="translate(831.079 212.751)" fill="#444053"/><circle cx="16.245" cy="16.245" r="16.245" transform="translate(2083.957 430.616)" fill="#164de5"/><rect width="150.843" height="102.109" rx="2.43" transform="translate(1691.765 532.725)" fill="#fff"/><rect width="194.936" height="16.245" rx="0.61" transform="translate(1882.059 532.725)" fill="#fff"/><rect width="194.936" height="16.245" rx="0.61" transform="translate(1882.059 567.535)" fill="#fff"/><rect width="194.936" height="16.245" rx="0.61" transform="translate(1882.059 602.345)" fill="#fff"/><rect width="150.843" height="102.109" rx="2.43" transform="translate(1691.765 692.851)" fill="#fff"/><rect width="194.936" height="16.245" rx="0.61" transform="translate(1882.059 692.851)" fill="#fff"/><rect width="194.936" height="16.245" rx="0.61" transform="translate(1882.059 727.661)" fill="#fff"/><rect width="194.936" height="16.245" rx="0.66" transform="translate(1882.059 762.471)" fill="#fff"/><rect width="150.843" height="102.109" rx="2.43" transform="translate(1691.765 852.977)" fill="#fff"/><rect width="194.936" height="16.245" rx="0.66" transform="translate(1882.059 852.977)" fill="#fff"/><rect width="194.936" height="16.245" rx="0.66" transform="translate(1882.059 887.787)" fill="#fff"/><rect width="194.936" height="16.245" rx="0.66" transform="translate(1882.059 922.597)" fill="#fff"/><rect width="150.843" height="102.109" rx="2.43" transform="translate(1691.765 1013.103)" fill="#fff"/><rect width="194.936" height="16.245" rx="0.66" transform="translate(1882.059 1013.103)" fill="#fff"/><rect width="194.936" height="16.245" rx="0.66" transform="translate(1882.059 1047.913)" fill="#fff"/><rect width="194.936" height="16.245" rx="0.66" transform="translate(1882.059 1082.723)" fill="#fff"/><rect width="150.843" height="102.109" rx="2.43" transform="translate(1691.765 1173.229)" fill="#fff"/><rect width="194.936" height="16.245" rx="0.66" transform="translate(1882.059 1173.229)" fill="#fff"/><rect width="194.936" height="16.245" rx="0.66" transform="translate(1882.059 1208.039)" fill="#fff"/><rect width="194.936" height="16.245" rx="0.66" transform="translate(1882.059 1242.849)" fill="#fff"/><path d="M403.49,569.739V527.851a1.184,1.184,0,0,1,1.184-1.184h4.757a1.184,1.184,0,0,1,1.184,1.184v17.428l19.308-17.892a3.156,3.156,0,0,1,5.175,2.32V567.65a3.156,3.156,0,0,1-5.175,2.321l-19.308-17.776V569.53a1.184,1.184,0,0,1-1.184,1.184h-4.757A1.183,1.183,0,0,1,403.49,569.739Z" transform="translate(451.651 616.115)" fill="#34353d"/><path d="M622.468,527.807V569.7a1.184,1.184,0,0,1-1.207,1.184H616.62a1.184,1.184,0,0,1-1.184-1.184V552.267l-19.308,17.869a3.179,3.179,0,0,1-5.2-2.321V529.734a3.179,3.179,0,0,1,5.2-2.321l19.308,17.776V527.877a1.184,1.184,0,0,1,1.184-1.184h4.641a1.184,1.184,0,0,1,1.207,1.114Z" transform="translate(699.197 616.158)" fill="#34353d"/><path d="M508.627,571.014h-9.445a4.641,4.641,0,0,1-4.641-4.641V531.7a4.641,4.641,0,0,1,4.641-4.641h9.445a4.641,4.641,0,0,1,4.641,4.641v34.671A4.641,4.641,0,0,1,508.627,571.014Zm29.937-4.641V531.7a4.641,4.641,0,0,0-4.641-4.641h-9.538a4.641,4.641,0,0,0-4.641,4.641v34.671a4.641,4.641,0,0,0,4.641,4.641h9.445a4.641,4.641,0,0,0,4.734-4.641Z" transform="translate(571.898 616.65)" fill="#34353d"/><rect width="556.96" height="6.196" transform="translate(809.911 1087.504)" fill="#34353d" opacity="0.6"/><circle cx="14.69" cy="14.69" r="14.69" transform="translate(967.206 1075.901)" fill="#444053"/><rect width="171.985" height="6.196" transform="translate(809.911 1087.504)" fill="#34353d"/><path d="M464.542,1364.217c-4.641-1.694-9.608-1.416-14.458-1.949a44.744,44.744,0,0,1-26.595-12.9,48.734,48.734,0,0,1-10.629-16.244c1.532.557,3.063,1.137,4.641,1.764-4.641-10.838.232-23,4.5-33.951q10.861-27.848,20.538-56c16.245-47.55,30.169-97,29.867-147.594,0-18.287-3.365-35.576-4.015-53.839-.487-13.553,1.6-27.082,1.508-40.658,0-1.9,0-3.783-.139-5.686a36.04,36.04,0,0,0,12.23-29.38,70.727,70.727,0,0,0-1.23-8.54,138.524,138.524,0,0,0-3.249-14.528c-1.532-5.036-3.62-9.863-5.407-14.782-3.458-9.538-5.8-19.47-8.749-29.171a10.042,10.042,0,0,1,3.156.859,6.8,6.8,0,0,1-1.485-3.04,75.209,75.209,0,0,1-2.785-18.96l1.973-.882a49.361,49.361,0,0,0-.952-18.774c1.114-9.956,2.855-19.981,3.922-29.89.395-3.713.232-8.378-3.179-9.283-.7-5.314-.975-10.7-1.253-16.059q-1.462-28.057-2.9-56.09c-.975-18.774-1.949-37.525-2.321-56.323-.255-11.928-.395-24.274-3.226-35.692a43.162,43.162,0,0,0-1.648-16.245c-4.316-13.669-17.73-24.506-31.329-23.74A62.329,62.329,0,0,0,406.5,601.646c2.715-6.08,5.964-12.346,8.633-17.266,21.768-7.078,37.688-28.544,37.688-54.072a59.016,59.016,0,0,0-6.382-26.9,29.053,29.053,0,0,0,1.021-3.133,25.737,25.737,0,0,0-1.044-15.061,44.1,44.1,0,0,0-2.321-5.384c-.6-1.16-1.253-2.321-1.926-3.435l-1.184-1.787a33.362,33.362,0,0,0-2.321-3.156,76.853,76.853,0,0,0-5.291-6.359,52.369,52.369,0,0,0-7.612-6.776,33.558,33.558,0,0,0-12.532-5.778,38.184,38.184,0,0,0-7.96-.72c-1.6,0-3.226,0-4.827.139-3.249.186-6.475.418-9.7.395a21.46,21.46,0,0,1-3.226-.162,117.489,117.489,0,0,1-16.8-3.5l-2.785-.58c-.951-.186-1.88-.348-2.831-.464a53.13,53.13,0,0,0-7.681-.464h-2.576a71.215,71.215,0,0,0-7.681.789l-2.553.395a73.335,73.335,0,0,0-18.681,5.547c-.766.348-1.555.743-2.321,1.16l-.464.255c-.627.325-1.253.673-1.857,1.044l-.348.209-1.973,1.253-.162.116c-18.426,12.392-29.31,35.878-32.072,59.177-3.086,26.154,2.321,52.517,7.728,78.253l4.873,23.207c.209,1.044.441,2.065.65,3.11a51.056,51.056,0,0,0-15.293,21.211c-4.641,11.6-4.757,24.158-4.386,36.736,0,2.553.139,5.105.395,7.658-.58,4.827-1.091,9.677-1.416,14.551-1.462,22.51,1.276,45.137.557,67.694-.557,17.382-3.179,34.81-1.9,52.076,1.114,15.316,5.221,30.169,9.283,44.951l5.848,21.072a5.592,5.592,0,0,0,1.462,2.9,4.41,4.41,0,0,0,3.272.673,197.53,197.53,0,0,0-9.515,26.641,82.385,82.385,0,0,0-3.435,17.126c-.766,10.629,1.694,21.188,4.154,31.515q5.57,23.207,11.093,46.6,3.9,16.361,7.774,32.7c5.105,21.489,10.234,43.118,11.186,65.234a141.681,141.681,0,0,1-2.321,33.162,288.969,288.969,0,0,0-2.878,99.394,487.333,487.333,0,0,0,18.774,82.175c1.88-1,3.783-1.926,5.732-2.785l-.812,1.508q-4.015,6.962-7.426,14.272a81.188,81.188,0,0,0-3.968,9.77c-2.97,9.283-3.435,19.169-3.852,28.939a14.158,14.158,0,0,0,.487,5.593c1.276,3.5,4.943,5.291,8.354,6.266,10.025,2.854,20.445,1.833,30.865.487a3.742,3.742,0,0,0,.209.673c1.276,3.5,4.92,5.291,8.354,6.266,14.342,4.084,29.472.232,44.255-1.16s29.31-.371,43.536-3.783a20.732,20.732,0,0,0,6.034-2.321,19.75,19.75,0,0,0,7.612-10.559,13.529,13.529,0,0,0,.882-3.458C473.476,1370.39,469.137,1365.911,464.542,1364.217ZM415.46,1149.3a58.484,58.484,0,0,1-4.641,15.734,300.3,300.3,0,0,0-23.81,74.656,346.13,346.13,0,0,0-5.268,51.635c-.232,12.764.255,26.131-5.059,37.595l1.926-.3c-.6,1.114-1.184,2.321-1.74,3.2l-.279.51a50.311,50.311,0,0,1-6.335-17.776c0-.209-1.044-.371-2.646-.464a480.213,480.213,0,0,1-6.776-111.137,51.452,51.452,0,0,1,1.857-13.344c1.184-3.736,3.179-7.148,4.641-10.768a79.112,79.112,0,0,0,4.641-18.89,268.369,268.369,0,0,0,2.924-49.941c-.557-15.757,3.086-31.422,6.2-47.109,1.485-7.449,2.854-14.922,3.6-22.395l.139-1.508a224.8,224.8,0,0,1,28.5,73.983,105.824,105.824,0,0,1,2.135,36.319ZM316.135,813.917l.743.65a51.04,51.04,0,0,1,6.173,6.475A8.563,8.563,0,0,1,325,824.615c.7,3.388-2.112,6.266-4.409,8.749a39.446,39.446,0,0,0-2.808,3.388q-.742-11.418-1.578-22.835Z" transform="translate(285.38 511.153)" fill="url(#a)"/><path d="M284.076,542.53l-2.553,19.7c-.859,6.683-1.717,13.344-2.181,20.051-1.555,22.325,1.323,44.743.58,67.114-.6,17.219-3.342,34.416-2.019,51.612,1.184,15.177,5.5,29.937,9.816,44.557l6.127,20.886a5.524,5.524,0,0,0,1.532,2.878,5.407,5.407,0,0,0,3.922.627l27.2-2.46c-1.74-7.983-3.667-16.245-4.641-24.437-.743-6.405-1.184-12.856-1.648-19.308-1.439-20.1-3.086-40.194-4.641-60.337l-2.9-35.274c-1.23-15.316-2.506-30.7-6.359-45.578a90.715,90.715,0,0,0-22.232-40.031Z" transform="translate(285.322 637.081)" fill="#6c63ff"/><path d="M284.076,542.53l-2.553,19.7c-.859,6.683-1.717,13.344-2.181,20.051-1.555,22.325,1.323,44.743.58,67.114-.6,17.219-3.342,34.416-2.019,51.612,1.184,15.177,5.5,29.937,9.816,44.557l6.127,20.886a5.524,5.524,0,0,0,1.532,2.878,5.407,5.407,0,0,0,3.922.627l27.2-2.46c-1.74-7.983-3.667-16.245-4.641-24.437-.743-6.405-1.184-12.856-1.648-19.308-1.439-20.1-3.086-40.194-4.641-60.337l-2.9-35.274c-1.23-15.316-2.506-30.7-6.359-45.578a90.715,90.715,0,0,0-22.232-40.031Z" transform="translate(285.322 637.081)" fill="#f1fefb" opacity="0.949"/><path d="M305.963,845.457a83.121,83.121,0,0,0-4.177,9.7c-3.11,9.167-3.574,19.006-4.038,28.683a13.924,13.924,0,0,0,.511,5.547c1.346,3.481,5.2,5.245,8.8,6.2,15.061,4.061,30.934.255,46.413-1.137s30.772-.371,45.717-3.736a23.341,23.341,0,0,0,6.336-2.2,19.749,19.749,0,0,0,8.006-10.443,13.649,13.649,0,0,0,.9-3.435c.487-5.105-3.945-9.515-8.772-11.185s-10.095-1.416-15.177-1.926a47.805,47.805,0,0,1-42.329-39.939c-.186-1.114-25.156-.441-27.848,1-3.063,1.694-4.92,5.894-6.66,8.749Q309.536,838.216,305.963,845.457Z" transform="translate(311.891 1004.873)" fill="#a26565"/><path d="M305.963,845.457a83.121,83.121,0,0,0-4.177,9.7c-3.11,9.167-3.574,19.006-4.038,28.683a13.924,13.924,0,0,0,.511,5.547c1.346,3.481,5.2,5.245,8.8,6.2,15.061,4.061,30.934.255,46.413-1.137s30.772-.371,45.717-3.736a23.341,23.341,0,0,0,6.336-2.2,19.749,19.749,0,0,0,8.006-10.443,13.649,13.649,0,0,0,.9-3.435c.487-5.105-3.945-9.515-8.772-11.185s-10.095-1.416-15.177-1.926a47.805,47.805,0,0,1-42.329-39.939c-.186-1.114-25.156-.441-27.848,1-3.063,1.694-4.92,5.894-6.66,8.749Q309.536,838.216,305.963,845.457Z" transform="translate(311.891 1004.873)" fill="#f9fafb" opacity="0.907"/><path d="M323.816,848.706a78.915,78.915,0,0,0-4.177,9.677c-3.133,9.283-3.6,19.006-4.038,28.683a13.529,13.529,0,0,0,.511,5.547c1.323,3.481,5.175,5.245,8.772,6.219,15.061,4.038,30.958.232,46.413-1.16s30.8-.371,45.717-3.736a22.328,22.328,0,0,0,6.335-2.321,19.656,19.656,0,0,0,8.006-10.443,13.637,13.637,0,0,0,.905-3.434c.487-5.083-3.945-9.515-8.772-11.186s-10.095-1.392-15.177-1.926a47.829,47.829,0,0,1-42.329-39.915c-.186-1.114-25.156-.464-27.848.975-3.086,1.694-4.943,5.894-6.684,8.749C328.806,839.145,326.207,843.879,323.816,848.706Z" transform="translate(335.461 1009.004)" fill="#f9fafb"/><path d="M477.791,862.777c.325,50.15-14.249,99.162-31.352,146.2q-10.165,27.987-21.559,55.487c-4.5,10.861-9.584,22.928-4.757,33.65-13.924-5.291-28.08-8.4-42.723-5.964,5.57-11.371,5.036-24.6,5.291-37.131a325.583,325.583,0,0,1,5.477-51.171,285.443,285.443,0,0,1,25.04-74.006,56.392,56.392,0,0,0,4.85-15.595c1.9-11.928.418-24.181-2.065-35.993a214.593,214.593,0,0,0-29.937-73.333l-.139,1.485a216.426,216.426,0,0,1-3.759,22.209c-3.272,15.525-7.1,31.074-6.521,46.692a252.544,252.544,0,0,1-3.063,49.5,75.255,75.255,0,0,1-4.99,18.7c-1.6,3.6-3.69,6.962-4.943,10.7a48.733,48.733,0,0,0-1.949,13.228c-1.857,37.757,0,76.095,7.7,113.109-12.926-1.021-25.852,2.715-37.409,8.517a460.733,460.733,0,0,1-19.726-81.455,270.637,270.637,0,0,1,3.017-98.536,130.932,130.932,0,0,0,2.437-32.837c-1-21.931-6.382-43.373-11.743-64.677L296.8,779.071q-5.8-23.207-11.6-46.2c-2.576-10.234-5.175-20.7-4.363-31.236a77.511,77.511,0,0,1,3.62-16.987,189.576,189.576,0,0,1,25.69-52.54c44.719,2.506,89.972-1.671,134.6-5.105a9.028,9.028,0,0,1,6.312,1.068,8.935,8.935,0,0,1,2.553,5.755l16.778,95.147a239.037,239.037,0,0,1,4.757,40.148c0,13.46-2.089,26.873-1.578,40.31C474.264,827.526,477.7,844.653,477.791,862.777Z" transform="translate(289.467 748.408)" fill="#002338"/><path d="M356.769,746.567a216.449,216.449,0,0,1-3.759,22.209c-9.724-16.825-20.213-33.232-29.171-50.474-2.321-4.432-4.5-8.935-6.707-13.437l-6.614-13.46c-1.23-2.53-2.46-5.059-3.574-7.635a55.171,55.171,0,0,1-4.154-11.6c3.249-.6,11.278,8.169,13.692,10.466a187.2,187.2,0,0,1,13.924,15.409,168.953,168.953,0,0,1,14.527,19.029,92.547,92.547,0,0,1,11.835,29.5Z" transform="translate(318.66 808.249)" opacity="0.1"/><path d="M398.123,516.9s-24.831,39.567-20.236,47.852-78.206-7.356-78.206-7.356,45.091-39.567,40.472-56.137S398.123,516.9,398.123,516.9Z" transform="translate(314.553 576.315)" fill="#efb7b9"/><circle cx="56.137" cy="56.137" r="56.137" transform="translate(634.469 992.914)" fill="#efb7b9"/><path d="M426.62,539.166a57,57,0,0,0-23.6-18.983,84.426,84.426,0,0,0-16.778-4.131l-22.394-3.945c-5.477-.975-11.348-1.88-16.453.371a26.966,26.966,0,0,0-6.962,5.129c-7.774,7.217-15.316,15.131-25.086,19.308-2.669,1.137-5.454,1.972-8.122,3.11-10.93,4.641-19.1,14.527-23.717,25.527-4.873,11.464-5.013,23.926-4.641,36.388a63.961,63.961,0,0,0,1.276,12.81,82.539,82.539,0,0,0,4.247,11.743,214.841,214.841,0,0,1,7.751,24.9q8.7,33.3,14.481,67.3a25.226,25.226,0,0,0,2.808,9.282,33.324,33.324,0,0,0,7.751,7.45,48.407,48.407,0,0,1,6.475,6.428,8.4,8.4,0,0,1,2.112,3.435c.719,3.342-2.321,6.219-4.641,8.656a41.91,41.91,0,0,0-10.489,18.264,7.357,7.357,0,0,0-1.671,5.036,8.819,8.819,0,0,1,.534,3.991,9,9,0,0,1-2.112,3.272,12.37,12.37,0,0,0-2.321,9.932A157.548,157.548,0,0,0,360.016,807.3c4.641.232,9.283.232,13.924.789,3.3.418,6.544,1.091,9.84,1.485a106.238,106.238,0,0,0,14.388.371c24.994-.51,50.707-1.137,73.658-11.046,2.158-11.766-2.506-23.764-5.43-35.367-4.641-18.565-5.8-37.572-9.283-56.3-2.321-12.787-5.8-25.388-7.774-38.268s-2.321-26.224,1.114-38.755c3.133-11.093,4.084-22.418,7.333-33.487s5.523-23.068,1.857-34.021C455,549.145,440.915,538.4,426.62,539.166Z" transform="translate(286.891 595.54)" fill="#f1fefb"/><path d="M450.827,503.36c2.738-9.956-2.646-20.329-9.051-28.428-6.962-8.7-15.827-16.546-26.711-18.728-8.842-1.787-18.008.371-27.013-.348-7.96-.627-15.618-3.5-23.532-4.641a74.536,74.536,0,0,0-21.536.812,81.8,81.8,0,0,0-19.61,5.477c-23.9,10.606-37.9,36.736-41.145,62.658s2.437,52.052,8.1,77.557l5.129,23.068c5.338,24.019,10.675,48.131,12.091,72.683s-1.23,49.755-11.325,72.173a155.23,155.23,0,0,0,71.314-80.736c3.62-9.492,6.312-19.354,10.35-28.683,3.458-8.03,7.89-15.641,10.954-23.833a77.417,77.417,0,0,0,4.9-28.939c-.186-7.426-1.416-14.806-1.207-22.232s2.112-15.154,7.24-20.538c4.641-4.757,11.023-6.962,16.894-10.048a70.341,70.341,0,0,0,23.648-19.726c3.69-4.827,3.9-6.962,4.827-12.439S449.388,508.628,450.827,503.36Z" transform="translate(290.254 515.917)" fill="#a26565"/><path d="M359.176,672.735c.58,5.778-.464,11.6.789,17.335.951,4.27,3.156,8.122,4.456,12.3a58.484,58.484,0,0,1,1.972,14.783c.186,4.177-.139,9.283-3.852,11.232-1.625.859-3.574.859-5.268,1.6s-3.133,2.762-2.158,4.34,2.646,1.323,4.177,1.625,3.179,1.88,2.321,3.156a2.646,2.646,0,0,1-1.346.859,16.43,16.43,0,0,0-4.363,2.089,4.456,4.456,0,0,0-1.787,4.247,2.622,2.622,0,0,0,3.736,1.717,11.6,11.6,0,0,0-1.091,4.641c5.941,2.552,12.6-.789,18.171-4.015a68.433,68.433,0,0,0,6.962-4.456,34.81,34.81,0,0,0,13.553-29.635,69.138,69.138,0,0,0-1.323-8.471,127.441,127.441,0,0,0-3.411-14.411c-1.6-4.99-3.783-9.747-5.662-14.644-3.992-10.42-6.567-21.327-10.188-31.886a4.827,4.827,0,0,0-1.74-2.762,4.9,4.9,0,0,0-2.576-.487,42.2,42.2,0,0,0-12.091,1.114c-2.321.7-6.289,2.321-7.38,4.641s.65,4.27,1.694,6.2a51.937,51.937,0,0,1,6.4,18.89Z" transform="translate(381.974 768.23)" fill="#efb7b9"/><path d="M382.646,533.64a17.006,17.006,0,0,1,2.97,4.131c7.983,14.5,8.076,31.84,8.447,48.386.418,18.565,1.439,37.131,2.46,55.812l3.04,55.7c.3,5.314.58,10.629,1.346,15.9,3.574.905,3.713,5.547,3.319,9.283-2.576,22.7-8.958,46.065-2.321,67.9a6.822,6.822,0,0,0,1.555,3.017,18.125,18.125,0,0,0-10.373-.139c-3.319.7-6.521,1.926-9.863,2.692-4.224.951-9,1.369-11.882,4.641a230.289,230.289,0,0,1-7.774-29.983c-1.578-9.283-2.019-18.844-5.779-27.43-1.508-3.458-3.551-6.66-5.407-9.979-9.724-17.359-14.5-36.968-19.169-56.323a82.221,82.221,0,0,1-1.485-27.987,96.244,96.244,0,0,0,1.16-12.88,98.937,98.937,0,0,0-1.787-13.553,90.854,90.854,0,0,1,2.715-39.243c3.481-11.812,6.544-24.251,13.924-34.183S370.323,533.8,382.646,533.64Z" transform="translate(354.722 625.34)" opacity="0.1"/><path d="M383.81,532.84a17.155,17.155,0,0,1,2.97,4.154c7.983,14.481,8.076,31.839,8.447,48.386.418,18.565,1.439,37.131,2.46,55.7l3.04,55.7c.3,5.314.58,10.629,1.346,15.9,3.574.905,3.713,5.546,3.3,9.283-2.553,22.7-8.935,46.042-2.321,67.9a6.821,6.821,0,0,0,1.555,3.017,18.124,18.124,0,0,0-10.373-.139c-3.319.7-6.521,1.926-9.863,2.669-4.224.975-9,1.369-11.882,4.641a227.913,227.913,0,0,1-7.7-30.122c-1.578-9.283-2.019-18.821-5.778-27.407a112.087,112.087,0,0,0-5.407-9.979c-9.747-17.359-14.5-36.991-19.169-56.346a82.2,82.2,0,0,1-1.485-27.987,60.339,60.339,0,0,0-.627-26.432,90.737,90.737,0,0,1,2.715-39.219c3.481-11.812,6.544-24.251,13.924-34.183S371.487,533.026,383.81,532.84Z" transform="translate(356.319 624.284)" fill="#f1fefb"/><g transform="translate(586.478 966.702)" opacity="0.1"><path d="M423.328,474.932c-6.962-8.7-15.827-16.546-26.711-18.728-8.842-1.787-18.008.371-27.013-.348-7.96-.627-15.618-3.5-23.532-4.641a74.536,74.536,0,0,0-21.536.812,81.8,81.8,0,0,0-19.61,5.477,58.234,58.234,0,0,0-9.677,5.5,82.521,82.521,0,0,1,17.335-4.641,74.257,74.257,0,0,1,21.513-.812c7.937,1.021,15.572,3.876,23.555,4.5,8.981.719,18.148-1.416,27.013.348,10.884,2.181,19.8,10.048,26.688,18.751,6.428,8.076,11.789,18.449,9.074,28.428-1.439,5.245-4.781,9.84-5.686,15.247s-1.137,7.612-4.85,12.439a70.5,70.5,0,0,1-17.034,15.85c1.787-.835,3.62-1.671,5.361-2.576a70.338,70.338,0,0,0,23.648-19.726c3.69-4.827,3.9-6.962,4.827-12.439s4.247-9.979,5.686-15.247C435.117,493.4,429.733,483.031,423.328,474.932Z" transform="translate(-277.775 -450.785)"/><path d="M391.268,499.745a23.214,23.214,0,0,1,3.133-2.715c-5.361,2.6-11,4.873-15.107,9.283-5.129,5.361-6.962,13.112-7.24,20.538s1.044,14.806,1.207,22.209a77.533,77.533,0,0,1-4.9,28.962c-3.063,8.192-7.5,15.781-10.953,23.833-4.015,9.283-6.707,19.169-10.327,28.66a155.484,155.484,0,0,1-58.968,73.379c-.139.3-.255.627-.394.928a155.23,155.23,0,0,0,71.314-80.736c3.62-9.492,6.312-19.354,10.35-28.683,3.458-8.03,7.89-15.641,10.954-23.833a77.418,77.418,0,0,0,4.9-28.939c-.186-7.426-1.416-14.806-1.207-22.232S386.14,505.129,391.268,499.745Z" transform="translate(-287.72 -389.711)"/></g></g><path d="M77.155,114.922a5.916,5.916,0,0,1-9.563,1.621L26.1,75.372a5.9,5.9,0,0,1,.486-8.753l5.511-5.511a5.864,5.864,0,0,1,7.456,0L61.432,80.4a5.848,5.848,0,0,0,8.1-.81c12.481-14.426,35.174-40.2,65.322-60.622C124.485,4.539,105.683,0,72.94,0,14.588,0,0,14.588,0,72.94s14.588,72.94,72.94,72.94,72.94-14.588,72.94-72.94c0-18.316-1.459-32.256-5.187-42.792C112.166,58.19,88.015,92.067,77.155,114.922Z" transform="translate(11393 5541)" fill="#0a4de5"/><path d="M31.608,47.08a2.424,2.424,0,0,1-3.918.664l-17-16.866a2.415,2.415,0,0,1,.2-3.586l2.258-2.258a2.4,2.4,0,0,1,3.055,0l8.964,7.9a2.4,2.4,0,0,0,3.32-.332C33.6,26.694,42.9,16.136,55.247,7.769,51,1.859,43.295,0,29.881,0,5.976,0,0,5.976,0,29.881S5.976,59.763,29.881,59.763s29.881-5.976,29.881-29.881c0-7.5-.6-13.214-2.125-17.53C45.951,23.839,36.057,37.717,31.608,47.08Z" transform="translate(12397.059 5501.118)" fill="#0a4de5"/><path d="M31.608,47.08a2.424,2.424,0,0,1-3.918.664l-17-16.866a2.415,2.415,0,0,1,.2-3.586l2.258-2.258a2.4,2.4,0,0,1,3.055,0l8.964,7.9a2.4,2.4,0,0,0,3.32-.332C33.6,26.694,42.9,16.136,55.247,7.769,51,1.859,43.295,0,29.881,0,5.976,0,0,5.976,0,29.881S5.976,59.763,29.881,59.763s29.881-5.976,29.881-29.881c0-7.5-.6-13.214-2.125-17.53C45.951,23.839,36.057,37.717,31.608,47.08Z" transform="translate(12397.059 5341.118)" fill="#0a4de5"/><text transform="translate(11558 5644)" fill="#164de5" font-size="87" font-family="Poppins-Regular, Poppins"><tspan x="0" y="0">wpcomplete</tspan></text></g></svg>