<svg width="482" height="193" viewBox="0 0 482 193" fill="none" xmlns="http://www.w3.org/2000/svg" data-ember-extension="1">
<path fill-rule="evenodd" clip-rule="evenodd" d="M225.395 59.8307C209.334 59.8307 194.755 65.7609 183.636 75.3977V1.26904H160.162V185.355H183.636V171.765C194.755 181.402 209.334 187.332 225.395 187.332C260.729 187.332 289.145 158.669 289.145 123.581C289.145 88.4937 260.729 59.8307 225.395 59.8307ZM224.653 165.093C201.921 165.093 184.377 147.302 184.377 123.581C184.377 99.8601 201.921 82.0692 224.653 82.0692C247.633 82.0692 264.93 99.8601 264.93 123.581C264.93 147.302 247.633 165.093 224.653 165.093ZM108.277 61.8074V75.3977C97.158 65.7609 82.5794 59.8307 66.5182 59.8307C31.1836 59.8307 2.76758 88.4937 2.76758 123.581C2.76758 158.669 31.1836 187.332 66.5182 187.332C82.5794 187.332 97.158 181.402 108.277 171.765V185.355H131.751V61.8074H108.277ZM67.0124 165.093C44.2796 165.093 26.7358 147.302 26.7358 123.581C26.7358 99.8601 44.2796 82.0692 67.0124 82.0692C89.9923 82.0692 107.289 99.8601 107.289 123.581C107.289 147.302 89.9923 165.093 67.0124 165.093ZM334.151 185.355H310.677V1.26904H334.151V185.355ZM420.804 187.334C384.074 187.334 355.745 159.966 355.745 123.475C355.745 88.9054 382.873 59.8569 418.644 59.8569C453.934 59.8569 479.862 86.9848 479.862 123.475V131.398H380.233C383.594 151.324 400.158 166.208 420.804 166.208C434.968 166.208 446.972 160.446 456.095 148.203L473.62 161.166C461.376 177.491 443.131 187.334 420.804 187.334ZM455.374 112.192C451.293 93.4667 436.169 80.9831 418.164 80.9831C400.158 80.9831 385.034 93.4667 380.713 112.192H455.374Z" fill="#1B1B1B"/>
</svg>