<svg width="57" height="69" viewBox="0 0 57 69" fill="none" xmlns="http://www.w3.org/2000/svg">
<path d="M0.601135 0H21.3611V3.55613H4.20769V12.8354H19.4354V16.3915H4.20769V30.0715H0.601135V0Z" fill="black"/>
<path d="M0 58.1541L3.60656 57.4318C4.33009 61.7103 7.04614 63.9106 11.5766 63.9106C15.9401 63.9106 18.9901 61.8325 18.9901 58.8654C18.9901 56.265 16.6302 54.4647 10.8531 52.7866C3.84031 50.7863 0.834851 47.8303 0.834851 43.6629C0.834851 38.9066 4.76422 35.9395 11.0534 35.9395C17.1868 35.9395 20.8713 38.7399 22.118 44.0963L18.389 44.8965C17.5875 41.2959 15.1832 39.4956 10.9755 39.4956C7.04614 39.4956 4.60838 41.018 4.60838 43.6185C4.60838 46.0189 6.65654 47.6636 12.3781 49.4194C19.914 51.6976 22.7191 54.6647 22.7191 58.8543C22.7191 64.0995 18.4335 67.5001 11.777 67.5001C5.12042 67.5001 1.00182 64.2329 0 58.1541Z" fill="black"/>
<path d="M27.2827 51.8305C27.2827 42.9069 33.1267 35.9502 42.1097 35.9502C51.0481 35.9502 56.8142 42.9513 56.8142 51.8305C56.8142 56.2312 55.3671 60.0763 52.8848 62.8323C54.087 64.0325 55.2447 65.2327 56.3689 66.4773L53.8087 69C52.6511 67.7553 51.4043 66.4773 50.1576 65.1994C47.8757 66.6774 45.1485 67.522 42.1097 67.522C33.4495 67.5108 27.2827 60.8764 27.2827 51.8305ZM47.4305 62.5545C46.2283 61.4321 45.0706 60.3097 43.8684 59.2762L46.3952 56.7536C47.6753 57.876 48.9554 59.0317 50.2022 60.1985C51.9275 58.076 52.9627 55.1977 52.9627 51.7972C52.9627 44.8405 48.7106 39.5619 42.1097 39.5619C35.4977 39.5619 31.2121 44.8405 31.2121 51.7972C31.2121 58.9206 35.8205 63.9547 42.1097 63.9547C44.0688 63.9547 45.8721 63.4769 47.4305 62.5545Z" fill="black"/>
</svg>
