<svg version="1.1" viewBox="0 0 700 700" xmlns="http://www.w3.org/2000/svg" class="h-8 w-auto fill-white inline-block">
  <g fill-rule="evenodd">
    <path d="m289.73 350c0-9.6602-7.8398-17.5-17.5-17.5h-155.56c-9.6602 0-17.5 7.8398-17.5 17.5v163.33c0 9.6602 7.8398 17.5 17.5 17.5h155.56c9.6602 0 17.5-7.8398 17.5-17.5zm-35 17.5v128.33h-120.56v-128.33z"></path>
    <path d="m445.27 268.33c0-9.6602-7.8164-17.5-17.5-17.5h-155.54c-9.6836 0-17.5 7.8398-17.5 17.5v245c0 9.6602 7.8164 17.5 17.5 17.5h155.54c9.6836 0 17.5-7.8398 17.5-17.5zm-35 17.5v210h-120.54v-210z"></path>
    <path d="m600.83 396.67c0-9.6602-7.8398-17.5-17.5-17.5h-155.56c-9.6602 0-17.5 7.8398-17.5 17.5v116.67c0 9.6602 7.8398 17.5 17.5 17.5h155.56c9.6602 0 17.5-7.8398 17.5-17.5zm-35 17.5v81.668h-120.56v-81.668z"></path>
    <path d="m319.32 51.449-8.5625 26.32h-27.648c-13.977 0-26.367 9.0078-30.684 22.309-4.3164 13.277 0.39844 27.836 11.715 36.074l22.375 16.262-8.5391 26.297c-4.3164 13.301 0.42188 27.859 11.715 36.074 11.316 8.2148 26.625 8.2148 37.941 0l22.375-16.262 22.375 16.262c11.316 8.2148 26.625 8.2148 37.941 0 11.293-8.2148 16.031-22.773 11.715-36.074l-8.5391-26.297 22.375-16.262c11.316-8.2383 16.031-22.797 11.715-36.074-4.3164-13.301-16.707-22.309-30.684-22.309h-27.648l-8.5625-26.32c-4.3164-13.277-16.707-22.285-30.684-22.285-13.977 0-26.367 9.0078-30.684 22.285zm30.684 18.828 9.8711 30.402c2.3555 7.2109 9.0781 12.086 16.66 12.086h31.941l-25.852 18.785c-6.1367 4.457-8.7031 12.367-6.3477 19.578l9.8711 30.402-25.852-18.809c-6.1367-4.457-14.441-4.457-20.578 0l-25.852 18.809 9.8711-30.402c2.3555-7.2109-0.21094-15.121-6.3477-19.578l-25.852-18.785h31.941c7.582 0 14.305-4.875 16.66-12.086l9.8711-30.402z"></path>
  </g>
</svg>
