<svg class="svg-icon" style="width: 2.5em; height: 2.5em; display: inline-block;" viewBox="0 0 1024 1024" version="1.1" xmlns="http://www.w3.org/2000/svg"><path d="M480.2 473.4c30 20.2 38 60.8 18 90.8-20.2 30-60.8 38-90.8 18-30-20.2-179.6-155.8-159.6-185.8s202.4 56.8 232.4 77z" fill="#7DAC51"></path><path d="M443.6 607.4c-15.6 0-30.8-4.6-44-13.4-15.6-10.4-61.4-50.2-100.8-91-57.4-59.6-76-93.8-62.4-114 13.6-20.4 52.2-16 129.2 14.4 52.8 20.8 107 48.2 122.6 58.6 17.6 11.8 29.6 29.8 33.8 50.6 4.2 20.8-0.2 42-12 59.6s-29.8 29.6-50.6 33.8c-5.4 0.8-10.6 1.4-15.8 1.4z m-183.4-202.8c1 5.8 8.8 27.8 64 84 36.6 37.4 77.8 73 91 81.8 11.4 7.6 25.2 10.4 38.6 7.8 13.4-2.6 25.2-10.4 32.8-21.8s10.4-25.2 7.8-38.6c-2.6-13.4-10.4-25.2-21.8-32.8-13.2-9-61.6-33.4-110.2-53.2-73.2-29.4-96.6-28.2-102.2-27.2z" fill="#463218"></path><path d="M512.2 438.4c16.6 25.6 9.4 59.8-16.2 76.4-25.6 16.6-59.8 9.4-76.4-16.2-16.6-25.6-87.8-180.2-62.2-196.8s138.2 111.2 154.8 136.6z" fill="#5B7C31"></path><path d="M466 537.8c-4.8 0-9.6-0.6-14.4-1.6-18-3.8-33.6-14.4-43.6-30-9.8-15-32-61.6-48.2-104.4-31.6-83.6-22.8-103.4-9.8-111.8 13-8.4 34.6-8.6 98.2 54.2 32.4 32.2 66 71.4 75.8 86.4 10 15.4 13.6 34 9.6 52s-14.4 33.6-30 43.6c-11.4 7.8-24.4 11.6-37.6 11.6z m-100-222.8c-0.8 9 3 34 22.8 84.4 15.8 40.4 35.6 80.6 42.6 91.6 6 9.2 15.2 15.6 26 17.8 10.8 2.2 21.8 0.2 31-5.8s15.6-15.2 17.8-26c2.2-10.8 0.2-21.8-5.8-31-7.2-11-35.8-45.2-66.4-76.2-38-38.2-59.6-52-68-54.8z" fill="#463218"></path><path d="M543.8 473.4c-30 20.2-38 60.8-18 90.8 20.2 30 60.8 38 90.8 18 30-20.2 179.6-155.8 159.6-185.8-20.2-30-202.4 56.8-232.4 77z" fill="#7DAC51"></path><path d="M580.2 607.2c-25.6 0-50.8-12.4-66.2-35.2-11.8-17.6-16-38.8-12-59.6 4.2-20.8 16-38.8 33.8-50.6 15.6-10.4 69.8-37.8 122.6-58.6 77-30.4 115.6-34.8 129.2-14.4 13.6 20.4-5 54.4-62.4 114-39.4 41-85.4 80.6-100.8 91-13.6 9.2-28.8 13.4-44.2 13.4z m178-203c-11.2 0-37.6 4-96.4 27.8-48.6 19.6-97 44.2-110.2 53.2-11.4 7.6-19.2 19.4-21.8 32.8-2.6 13.4 0 27.2 7.8 38.6 15.8 23.6 47.8 30 71.4 14 13.2-9 54.4-44.4 91-81.8 55-56.2 63-78.2 64-84-1.2-0.4-3-0.6-5.8-0.6z m-214.4 69.2z" fill="#463218"></path><path d="M511.8 438.4c-16.6 25.6-9.4 59.8 16.2 76.4 25.6 16.6 59.8 9.4 76.4-16.2 16.6-25.6 87.8-180.2 62.2-196.8-25.6-16.6-138.2 111.2-154.8 136.6z" fill="#5B7C31"></path><path d="M558 537.8c-13.2 0-26.2-3.8-37.6-11.2-15.4-10-26.2-25.6-30-43.6s-0.4-36.6 9.6-52c9.8-15 43.4-54.4 75.8-86.4 63.4-62.8 85.2-62.6 98.2-54.2 13 8.4 21.8 28.2-9.8 111.8-16.2 42.8-38.4 89.4-48.2 104.4-10 15.4-25.6 26.2-43.6 30-4.8 0.6-9.6 1.2-14.4 1.2z m100-222.8c-8.4 2.8-30 16.6-68 55-30.6 30.8-59.2 65.2-66.4 76.2-6 9.2-8 20.2-5.8 31s8.6 20 17.8 26c9.2 6 20.2 8 31 5.8s20-8.6 26-17.8c7.2-11 26.8-51 42.6-91.6 19.8-50.6 23.6-75.8 22.8-84.6z m-146.2 123.4z" fill="#463218"></path><path d="M577.8 799H446c-32.6 0-61.2-21.8-70-53.2l-41.8-151.6h355.2l-41.8 151.6c-8.6 31.4-37.2 53.2-69.8 53.2z" fill="#FE8E46"></path><path d="M471.2 745.8l-41.8-151.6h-95l41.8 151.6c8.6 31.4 37.2 53.2 70 53.2h95c-32.6 0-61.2-21.8-70-53.2z" fill="#E56823"></path><path d="M577.8 813H446c-38.8 0-73-26.2-83.4-63.6l-41.8-151.6c-1.2-4.2-0.2-8.8 2.4-12.2 2.6-3.4 6.8-5.6 11.2-5.6h355.2c4.4 0 8.4 2 11.2 5.6 2.6 3.4 3.6 8 2.4 12.2l-41.8 151.6c-10.4 37.4-44.8 63.6-83.6 63.6zM352.8 608.2l37 133.8c7 25.2 30.2 43 56.4 43H578c26.2 0 49.4-17.6 56.4-43l37-133.8H352.8z" fill="#463218"></path><path d="M577.8 678.4H357.4c-7.8 0-14-6.2-14-14s6.2-14 14-14h220.4c7.8 0 14 6.2 14 14s-6.2 14-14 14zM669.2 678.4h-46.2c-7.8 0-14-6.2-14-14s6.2-14 14-14h46.2c7.8 0 14 6.2 14 14s-6.4 14-14 14z" fill="#463218"></path><path d="M590.05 742.684l14.724-48.828 19.148 5.774-14.724 48.828z" fill="#FFFFFF"></path><path d="M595.2 514.8c0 44.4-36 80.4-80.4 80.4s-80.4-36-80.4-80.4 36-289.8 80.4-289.8 80.4 245.4 80.4 289.8z" fill="#7DAC51"></path><path d="M565.6 554.6c-44.4 0-80.4-36-80.4-80.4 0-31.6 18.4-165.6 45-239.6-5-6-10-9.6-15.2-9.6-44.4 0-80.4 245.4-80.4 289.8 0 44.4 36 80.4 80.4 80.4 31 0 57.8-17.6 71.2-43.2-6.6 1.8-13.4 2.6-20.6 2.6z" fill="#5B7C31"></path><path d="M514.8 609.2c-52 0-94.4-42.4-94.4-94.4 0-22.8 9-96.6 23.8-164.4 26.8-123.4 51.8-139.2 70.6-139.2s43.6 15.8 70.6 139.2c14.8 68 23.8 141.6 23.8 164.4 0 52-42.2 94.4-94.4 94.4z m0-370c-2.8 1.6-21.8 15.8-44.4 122.6-13.6 64.4-22 132.6-22 153 0 36.6 29.8 66.4 66.4 66.4s66.4-29.8 66.4-66.4c0-20.4-8.4-88.6-22-153-22.6-106.8-41.4-121-44.4-122.6z m-0.2-0.2z" fill="#463218"></path></svg>
